<svg width="28" height="29" viewBox="0 0 28 29" fill="none" xmlns="http://www.w3.org/2000/svg">
<path d="M14 0.76123C6.28133 0.76123 0 7.04256 0 14.7612C0 22.4799 6.28133 28.7612 14 28.7612C21.7187 28.7612 28 22.4799 28 14.7612C28 7.04256 21.7187 0.76123 14 0.76123ZM14 3.09456C20.4575 3.09456 25.6667 8.30373 25.6667 14.7612C25.6695 17.5542 24.668 20.2551 22.8449 22.3709C21.0218 24.4868 18.4987 25.8766 15.736 26.2867V18.1632H19.0587L19.5802 14.7881H15.736V12.9447C15.736 11.5447 16.1968 10.2999 17.507 10.2999H19.6128V7.35523C19.243 7.30506 18.4602 7.19656 16.9808 7.19656C13.8915 7.19656 12.0808 8.82756 12.0808 12.5446V14.7881H8.90517V18.1632H12.0808V26.2576C9.35637 25.8091 6.88011 24.4066 5.09447 22.3006C3.30884 20.1946 2.33017 17.5223 2.33333 14.7612C2.33333 8.30373 7.5425 3.09456 14 3.09456Z" fill="#383838"/>
</svg>
