<svg width="63" height="60" viewBox="0 0 63 60" fill="none" xmlns="http://www.w3.org/2000/svg">
<path d="M62.3849 32.8871C61.8237 27.2423 59.3018 21.9206 55.2836 17.9022C51.8496 14.4684 47.6466 12.2617 43.224 11.2806V8.17869C45.0303 7.7293 46.373 6.09425 46.373 4.15081C46.373 1.86201 44.511 0 42.2222 0H33.4322C31.1434 0 29.2814 1.86201 29.2814 4.15081C29.2814 6.09413 30.6241 7.72918 32.4303 8.17869V11.2892C28.0213 12.2746 23.8321 14.4782 20.408 17.9023C19.6586 18.6517 18.9676 19.4378 18.3351 20.2547C18.3045 20.2524 18.2738 20.2501 18.2426 20.2501H9.54284C8.8687 20.2501 8.32201 20.7967 8.32201 21.4709C8.32201 22.1452 8.8687 22.6918 9.54284 22.6918H16.6739C15.7788 24.1903 15.0571 25.7641 14.5077 27.3841H1.22083C0.546687 27.3841 0 27.9307 0 28.605C0 29.2792 0.546687 29.8258 1.22083 29.8258H13.8178C13.466 31.3703 13.264 32.9421 13.2119 34.5183H7.8133C7.13915 34.5183 6.59247 35.0648 6.59247 35.7391C6.59247 36.4134 7.13915 36.9599 7.8133 36.9599H13.2509C13.3539 38.5402 13.608 40.1121 14.0131 41.6524H6.10414C5.43 41.6524 4.88331 42.199 4.88331 42.8733C4.88331 43.5475 5.43 44.0941 6.10414 44.0941H14.7923C15.9899 47.2623 17.8616 50.2317 20.408 52.7781C24.4301 56.8002 29.7573 59.3227 35.408 59.881C36.2145 59.9606 37.0216 60 37.8276 60C42.5915 60 47.2949 58.6213 51.2857 56.0224C51.8507 55.6545 52.0105 54.8982 51.6426 54.3332C51.2746 53.7682 50.5183 53.6084 49.9533 53.9763C41.2175 59.665 29.5179 58.435 22.1345 51.0516C13.4712 42.3883 13.4712 28.2923 22.1345 19.629C30.7976 10.9658 44.8936 10.9658 53.557 19.629C60.9306 27.0027 62.1673 38.6923 56.4975 47.4239C56.1302 47.9894 56.291 48.7456 56.8564 49.1127C57.4221 49.4799 58.178 49.3191 58.5451 48.7536C61.5745 44.0882 62.9382 38.4535 62.3849 32.8871ZM31.7231 4.15093C31.7231 3.20846 32.4898 2.44178 33.4322 2.44178H42.2222C43.1647 2.44178 43.9314 3.20846 43.9314 4.15093C43.9314 5.09341 43.1647 5.86009 42.2222 5.86009H42.0032H33.6511H33.4322C32.4898 5.86009 31.7231 5.09329 31.7231 4.15093ZM34.872 10.8695V8.30175H40.7823V10.8651C38.8197 10.6317 36.8342 10.6332 34.872 10.8695Z" fill="#29BB89"/>
<path d="M54.4208 50.6934C54.0985 50.6934 53.7847 50.824 53.5578 51.0511C53.3295 51.2781 53.2 51.5931 53.2 51.9142C53.2 52.2352 53.3295 52.5502 53.5578 52.7773C53.7847 53.0056 54.0986 53.135 54.4208 53.135C54.7418 53.135 55.0556 53.0056 55.2839 52.7773C55.5109 52.5502 55.6416 52.2352 55.6416 51.9142C55.6416 51.5931 55.5111 51.2781 55.2839 51.0511C55.0556 50.824 54.7417 50.6934 54.4208 50.6934Z" fill="#29BB89"/>
<path d="M37.8458 16.4015C27.4031 16.4015 18.9072 24.8972 18.9072 35.3401C18.9072 45.7829 27.4031 54.2786 37.8458 54.2786C48.2885 54.2786 56.7844 45.7829 56.7844 35.3401C56.7844 24.8972 48.2885 16.4015 37.8458 16.4015ZM37.8458 51.837C28.7493 51.837 21.3489 44.4365 21.3489 35.3401C21.3489 26.2437 28.7493 18.8431 37.8458 18.8431C46.9423 18.8431 54.3427 26.2437 54.3427 35.3401C54.3427 44.4365 46.9423 51.837 37.8458 51.837Z" fill="#29BB89"/>
<path d="M45.5682 25.8911L39.5214 31.9378C39.0158 31.6877 38.447 31.5465 37.8457 31.5465C37.2443 31.5465 36.6757 31.6877 36.17 31.9378L33.4638 29.2315C32.9869 28.7548 32.2142 28.7548 31.7372 29.2315C31.2605 29.7083 31.2605 30.4813 31.7372 30.958L34.4434 33.6642C34.1932 34.1699 34.0521 34.7387 34.0521 35.34C34.0521 37.4317 35.7538 39.1336 37.8457 39.1336C39.9376 39.1336 41.6393 37.4317 41.6393 35.34C41.6393 34.7387 41.4981 34.1699 41.248 33.6642L47.1173 27.795L47.2947 27.6176C47.7714 27.1409 47.7714 26.3679 47.2947 25.8911C46.8179 25.4144 46.0452 25.4144 45.5682 25.8911ZM37.8457 36.692C37.1003 36.692 36.4938 36.0855 36.4938 35.3401C36.4938 34.5946 37.1003 33.9881 37.8457 33.9881C38.5912 33.9881 39.1977 34.5946 39.1977 35.3401C39.1977 36.0855 38.5912 36.692 37.8457 36.692Z" fill="#29BB89"/>
<path d="M50.8988 34.134H49.7677C49.0936 34.134 48.5469 34.6806 48.5469 35.3548C48.5469 36.0291 49.0936 36.5756 49.7677 36.5756H50.8988C51.5729 36.5756 52.1196 36.0291 52.1196 35.3548C52.1196 34.6806 51.5729 34.134 50.8988 34.134Z" fill="#29BB89"/>
<path d="M25.9238 34.1044H24.7928C24.1187 34.1044 23.572 34.6509 23.572 35.3252C23.572 35.9994 24.1187 36.546 24.7928 36.546H25.9238C26.5979 36.546 27.1446 35.9994 27.1446 35.3252C27.1446 34.6509 26.5979 34.1044 25.9238 34.1044Z" fill="#29BB89"/>
<path d="M37.8607 24.6389C38.5348 24.6389 39.0815 24.0923 39.0815 23.418V22.2871C39.0815 21.6128 38.5348 21.0663 37.8607 21.0663C37.1866 21.0663 36.6399 21.6128 36.6399 22.2871V23.418C36.6399 24.0923 37.1866 24.6389 37.8607 24.6389Z" fill="#29BB89"/>
<path d="M37.8309 46.0413C37.1568 46.0413 36.6101 46.5878 36.6101 47.2621V48.393C36.6101 49.0673 37.1568 49.6138 37.8309 49.6138C38.505 49.6138 39.0517 49.0673 39.0517 48.393V47.2621C39.0517 46.5878 38.505 46.0413 37.8309 46.0413Z" fill="#29BB89"/>
<path d="M1.22081 41.652C0.899736 41.652 0.584767 41.7826 0.357697 42.0097C0.130626 42.2367 0 42.5517 0 42.8728C0 43.1951 0.130504 43.5088 0.357697 43.7359C0.584889 43.963 0.899736 44.0936 1.22081 44.0936C1.54188 44.0936 1.85685 43.963 2.0838 43.7359C2.31087 43.5088 2.44162 43.1939 2.44162 42.8728C2.44162 42.5517 2.31099 42.2367 2.0838 42.0097C1.85685 41.7826 1.54188 41.652 1.22081 41.652Z" fill="#29BB89"/>
</svg>
