<svg width="28" height="29" viewBox="0 0 28 29" fill="none" xmlns="http://www.w3.org/2000/svg">
<path fill-rule="evenodd" clip-rule="evenodd" d="M8.22818 0.84523C9.72109 0.776503 10.1971 0.76123 14 0.76123C17.8029 0.76123 18.2789 0.777776 19.7705 0.84523C21.2622 0.912685 22.2804 1.15069 23.1713 1.49559C24.1042 1.84814 24.9505 2.39923 25.6505 3.11196C26.3633 3.81068 26.9131 4.65578 27.2644 5.58996C27.6105 6.48087 27.8473 7.49905 27.916 8.98814C27.9847 10.4836 28 10.9596 28 14.7612C28 18.5641 27.9835 19.0401 27.916 20.533C27.8485 22.0221 27.6105 23.0403 27.2644 23.9312C26.9131 24.8655 26.3624 25.712 25.6505 26.4118C24.9505 27.1245 24.1042 27.6743 23.1713 28.0256C22.2804 28.3718 21.2622 28.6085 19.7731 28.6772C18.2789 28.746 17.8029 28.7612 14 28.7612C10.1971 28.7612 9.72109 28.7447 8.22818 28.6772C6.73909 28.6098 5.72091 28.3718 4.83 28.0256C3.89572 27.6743 3.04923 27.1236 2.34945 26.4118C1.63721 25.7126 1.08604 24.8665 0.734364 23.9325C0.389455 23.0416 0.152727 22.0234 0.084 20.5343C0.0152727 19.0389 0 18.5629 0 14.7612C0 10.9583 0.0165454 10.4823 0.084 8.99068C0.151455 7.49905 0.389455 6.48087 0.734364 5.58996C1.08656 4.65588 1.63815 3.80981 2.35073 3.11068C3.04951 2.3986 3.89515 1.84743 4.82873 1.49559C5.71964 1.15069 6.73782 0.913958 8.22691 0.84523H8.22818ZM19.6573 3.36523C18.1809 3.29778 17.738 3.28378 14 3.28378C10.262 3.28378 9.81909 3.29778 8.34273 3.36523C6.97709 3.42759 6.23636 3.65541 5.74255 3.84759C5.08964 4.10214 4.62255 4.40378 4.13255 4.89378C3.66806 5.34566 3.31059 5.89577 3.08636 6.50378C2.89418 6.99759 2.66636 7.73832 2.604 9.10396C2.53655 10.5803 2.52255 11.0232 2.52255 14.7612C2.52255 18.4992 2.53655 18.9421 2.604 20.4185C2.66636 21.7841 2.89418 22.5249 3.08636 23.0187C3.31036 23.6258 3.668 24.1769 4.13255 24.6287C4.58436 25.0932 5.13545 25.4509 5.74255 25.6749C6.23636 25.867 6.97709 26.0949 8.34273 26.1572C9.81909 26.2247 10.2607 26.2387 14 26.2387C17.7393 26.2387 18.1809 26.2247 19.6573 26.1572C21.0229 26.0949 21.7636 25.867 22.2575 25.6749C22.9104 25.4203 23.3775 25.1187 23.8675 24.6287C24.332 24.1769 24.6896 23.6258 24.9136 23.0187C25.1058 22.5249 25.3336 21.7841 25.396 20.4185C25.4635 18.9421 25.4775 18.4992 25.4775 14.7612C25.4775 11.0232 25.4635 10.5803 25.396 9.10396C25.3336 7.73832 25.1058 6.99759 24.9136 6.50378C24.6591 5.85087 24.3575 5.38378 23.8675 4.89378C23.4155 4.42932 22.8654 4.07186 22.2575 3.84759C21.7636 3.65541 21.0229 3.42759 19.6573 3.36523ZM12.2118 19.077C13.2105 19.4928 14.3225 19.5489 15.3579 19.2358C16.3933 18.9227 17.288 18.2599 17.889 17.3604C18.49 16.461 18.7601 15.3809 18.6532 14.3045C18.5462 13.228 18.0689 12.2221 17.3027 11.4585C16.8143 10.9704 16.2237 10.5966 15.5735 10.3641C14.9233 10.1317 14.2296 10.0462 13.5424 10.114C12.8553 10.1818 12.1916 10.4011 11.5994 10.7561C11.0071 11.1112 10.5009 11.5931 10.1173 12.1672C9.73364 12.7414 9.48206 13.3934 9.38066 14.0765C9.27925 14.7595 9.33056 15.4565 9.53087 16.1173C9.73118 16.7782 10.0755 17.3864 10.5391 17.8981C11.0027 18.4099 11.574 18.8126 12.2118 19.077ZM8.91164 9.67287C9.57985 9.00465 10.3731 8.4746 11.2462 8.11296C12.1193 7.75133 13.055 7.5652 14 7.5652C14.945 7.5652 15.8807 7.75133 16.7538 8.11296C17.6269 8.4746 18.4202 9.00465 19.0884 9.67287C19.7566 10.3411 20.2866 11.1344 20.6483 12.0074C21.0099 12.8805 21.196 13.8162 21.196 14.7612C21.196 15.7062 21.0099 16.642 20.6483 17.515C20.2866 18.3881 19.7566 19.1814 19.0884 19.8496C17.7388 21.1991 15.9085 21.9573 14 21.9573C12.0915 21.9573 10.2612 21.1991 8.91164 19.8496C7.56212 18.5001 6.80397 16.6697 6.80397 14.7612C6.80397 12.8527 7.56212 11.0224 8.91164 9.67287ZM22.792 8.63687C22.9576 8.48066 23.0902 8.29282 23.1818 8.08447C23.2735 7.87612 23.3225 7.65148 23.3258 7.42387C23.3291 7.19626 23.2867 6.97029 23.2012 6.75935C23.1156 6.54841 22.9886 6.35679 22.8276 6.19583C22.6666 6.03486 22.475 5.90783 22.2641 5.82225C22.0531 5.73668 21.8272 5.69429 21.5995 5.69761C21.3719 5.70093 21.1473 5.74988 20.9389 5.84157C20.7306 5.93326 20.5427 6.06582 20.3865 6.23141C20.0828 6.55345 19.9164 6.9812 19.9229 7.42387C19.9293 7.86653 20.1081 8.28926 20.4211 8.6023C20.7342 8.91535 21.1569 9.09407 21.5995 9.10052C22.0422 9.10697 22.47 8.94065 22.792 8.63687Z" fill="#383838"/>
</svg>
