<svg width="158" height="71" viewBox="0 0 158 71" fill="none" xmlns="http://www.w3.org/2000/svg">
<path d="M25.5566 14.7633V0L0 14.7633V44.5379L12.5302 37.3424V22.2069L25.5566 14.7633Z" fill="#29BB89"/>
<path d="M30.519 14.7633V0L56.0756 14.7633V44.5379L43.5454 37.3424V22.2069L30.519 14.7633Z" fill="#29BB89"/>
<path d="M40.7969 41.4364L53.5823 48.818L28.0187 63.569L2.23307 48.6817L14.7297 41.428L27.8373 48.9957L40.7969 41.4364Z" fill="#29BB89"/>
<path d="M70.8 22.152C72.576 22.152 74.128 22.504 75.456 23.208C76.784 23.912 77.808 24.904 78.528 26.184C79.264 27.448 79.632 28.912 79.632 30.576C79.632 32.224 79.264 33.688 78.528 34.968C77.808 36.248 76.776 37.24 75.432 37.944C74.104 38.648 72.56 39 70.8 39H64.488V22.152H70.8ZM70.536 35.448C72.088 35.448 73.296 35.024 74.16 34.176C75.024 33.328 75.456 32.128 75.456 30.576C75.456 29.024 75.024 27.816 74.16 26.952C73.296 26.088 72.088 25.656 70.536 25.656H68.592V35.448H70.536ZM83.9895 24.216C83.2695 24.216 82.6775 24.008 82.2135 23.592C81.7655 23.16 81.5415 22.632 81.5415 22.008C81.5415 21.368 81.7655 20.84 82.2135 20.424C82.6775 19.992 83.2695 19.776 83.9895 19.776C84.6935 19.776 85.2695 19.992 85.7175 20.424C86.1815 20.84 86.4135 21.368 86.4135 22.008C86.4135 22.632 86.1815 23.16 85.7175 23.592C85.2695 24.008 84.6935 24.216 83.9895 24.216ZM86.0295 25.608V39H81.9255V25.608H86.0295ZM94.0916 25.416C95.0356 25.416 95.8596 25.608 96.5636 25.992C97.2836 26.376 97.8356 26.88 98.2196 27.504V25.608H102.324V38.976C102.324 40.208 102.076 41.32 101.58 42.312C101.1 43.32 100.356 44.12 99.3476 44.712C98.3556 45.304 97.1156 45.6 95.6276 45.6C93.6436 45.6 92.0356 45.128 90.8036 44.184C89.5716 43.256 88.8676 41.992 88.6916 40.392H92.7476C92.8756 40.904 93.1796 41.304 93.6596 41.592C94.1396 41.896 94.7316 42.048 95.4356 42.048C96.2836 42.048 96.9556 41.8 97.4516 41.304C97.9636 40.824 98.2196 40.048 98.2196 38.976V37.08C97.8196 37.704 97.2676 38.216 96.5636 38.616C95.8596 39 95.0356 39.192 94.0916 39.192C92.9876 39.192 91.9876 38.912 91.0916 38.352C90.1956 37.776 89.4836 36.968 88.9556 35.928C88.4436 34.872 88.1876 33.656 88.1876 32.28C88.1876 30.904 88.4436 29.696 88.9556 28.656C89.4836 27.616 90.1956 26.816 91.0916 26.256C91.9876 25.696 92.9876 25.416 94.0916 25.416ZM98.2196 32.304C98.2196 31.28 97.9316 30.472 97.3556 29.88C96.7956 29.288 96.1076 28.992 95.2916 28.992C94.4756 28.992 93.7796 29.288 93.2036 29.88C92.6436 30.456 92.3636 31.256 92.3636 32.28C92.3636 33.304 92.6436 34.12 93.2036 34.728C93.7796 35.32 94.4756 35.616 95.2916 35.616C96.1076 35.616 96.7956 35.32 97.3556 34.728C97.9316 34.136 98.2196 33.328 98.2196 32.304ZM107.357 24.216C106.637 24.216 106.045 24.008 105.581 23.592C105.133 23.16 104.909 22.632 104.909 22.008C104.909 21.368 105.133 20.84 105.581 20.424C106.045 19.992 106.637 19.776 107.357 19.776C108.061 19.776 108.637 19.992 109.085 20.424C109.549 20.84 109.781 21.368 109.781 22.008C109.781 22.632 109.549 23.16 109.085 23.592C108.637 24.008 108.061 24.216 107.357 24.216ZM109.397 25.608V39H105.293V25.608H109.397ZM125.211 27.576C125.211 28.552 124.987 29.448 124.539 30.264C124.091 31.064 123.403 31.712 122.475 32.208C121.547 32.704 120.395 32.952 119.019 32.952H116.475V39H112.371V22.152H119.019C120.363 22.152 121.499 22.384 122.427 22.848C123.355 23.312 124.051 23.952 124.515 24.768C124.979 25.584 125.211 26.52 125.211 27.576ZM118.707 29.688C119.491 29.688 120.075 29.504 120.459 29.136C120.843 28.768 121.035 28.248 121.035 27.576C121.035 26.904 120.843 26.384 120.459 26.016C120.075 25.648 119.491 25.464 118.707 25.464H116.475V29.688H118.707ZM126.531 32.28C126.531 30.904 126.787 29.696 127.299 28.656C127.827 27.616 128.539 26.816 129.435 26.256C130.331 25.696 131.331 25.416 132.435 25.416C133.379 25.416 134.203 25.608 134.907 25.992C135.627 26.376 136.179 26.88 136.563 27.504V25.608H140.667V39H136.563V37.104C136.163 37.728 135.603 38.232 134.883 38.616C134.179 39 133.355 39.192 132.411 39.192C131.323 39.192 130.331 38.912 129.435 38.352C128.539 37.776 127.827 36.968 127.299 35.928C126.787 34.872 126.531 33.656 126.531 32.28ZM136.563 32.304C136.563 31.28 136.275 30.472 135.699 29.88C135.139 29.288 134.451 28.992 133.635 28.992C132.819 28.992 132.123 29.288 131.547 29.88C130.987 30.456 130.707 31.256 130.707 32.28C130.707 33.304 130.987 34.12 131.547 34.728C132.123 35.32 132.819 35.616 133.635 35.616C134.451 35.616 135.139 35.32 135.699 34.728C136.275 34.136 136.563 33.328 136.563 32.304ZM157.316 25.608L148.916 45.36H144.5L147.572 38.544L142.124 25.608H146.708L149.804 33.984L152.876 25.608H157.316Z" fill="#29BB89"/>
</svg>
