<svg width="35" height="60" viewBox="0 0 35 60" fill="none" xmlns="http://www.w3.org/2000/svg">
<path d="M30.1758 0H4.39453C1.97133 0 0 1.97133 0 4.39453V55.6055C0 58.0287 1.97133 60 4.39453 60H30.1758C32.599 60 34.5703 58.0287 34.5703 55.6055V4.39453C34.5703 1.97133 32.599 0 30.1758 0ZM32.8125 47.6953H7.91016C7.42477 47.6953 7.03125 48.0888 7.03125 48.5742C7.03125 49.0596 7.42477 49.4531 7.91016 49.4531H32.8125V55.6055C32.8125 57.0594 31.6297 58.2422 30.1758 58.2422H4.39453C2.94059 58.2422 1.75781 57.0594 1.75781 55.6055V49.4531H4.39453C4.87992 49.4531 5.27344 49.0596 5.27344 48.5742C5.27344 48.0888 4.87992 47.6953 4.39453 47.6953H1.75781V8.78906H32.8125V47.6953ZM32.8125 7.03125H1.75781V4.39453C1.75781 2.94059 2.94059 1.75781 4.39453 1.75781H30.1758C31.6297 1.75781 32.8125 2.94059 32.8125 4.39453V7.03125Z" fill="#29BB89"/>
<path d="M20.8008 3.51562H17.2852C16.7998 3.51562 16.4062 3.90914 16.4062 4.39453C16.4062 4.87992 16.7998 5.27344 17.2852 5.27344H20.8008C21.2862 5.27344 21.6797 4.87992 21.6797 4.39453C21.6797 3.90914 21.2862 3.51562 20.8008 3.51562Z" fill="#29BB89"/>
<path d="M17.2852 51.2109C15.8312 51.2109 14.6484 52.3937 14.6484 53.8477C14.6484 55.3016 15.8312 56.4844 17.2852 56.4844C18.7391 56.4844 19.9219 55.3016 19.9219 53.8477C19.9219 52.3937 18.7391 51.2109 17.2852 51.2109ZM17.2852 54.7266C16.8005 54.7266 16.4062 54.3323 16.4062 53.8477C16.4062 53.363 16.8005 52.9688 17.2852 52.9688C17.7698 52.9688 18.1641 53.363 18.1641 53.8477C18.1641 54.3323 17.7698 54.7266 17.2852 54.7266Z" fill="#29BB89"/>
<path d="M13.7695 5.27344C14.2549 5.27344 14.6484 4.87994 14.6484 4.39453C14.6484 3.90912 14.2549 3.51562 13.7695 3.51562C13.2841 3.51562 12.8906 3.90912 12.8906 4.39453C12.8906 4.87994 13.2841 5.27344 13.7695 5.27344Z" fill="#29BB89"/>
</svg>
