<svg width="60" height="41" viewBox="0 0 60 41" fill="none" xmlns="http://www.w3.org/2000/svg">
<path d="M15.6375 0C17.55 0 19.3125 1.08091 20.1375 2.75818L25.4625 13.3436C25.9875 14.3873 26.25 15.5055 26.25 16.6609V33.5455C26.25 37.6455 22.875 41 18.75 41H5.025C2.25 41 0 38.7636 0 36.0055V19.9036C0 17.1455 2.25 14.9091 5.025 14.9091H15L11.1375 7.23091C9.45 3.91364 11.8875 0 15.6375 0ZM49.3875 0C51.3 0 53.0625 1.08091 53.8875 2.75818L59.2125 13.3436C59.7375 14.3873 60 15.5055 60 16.6609V36.0055C60 38.7636 57.75 41 54.975 41H38.775C36 41 33.75 38.7636 33.75 36.0055V19.9036C33.75 17.1455 36 14.9091 38.775 14.9091H48.75L44.8875 7.23091C43.2 3.91364 45.6375 0 49.3875 0Z" fill="#29BB89"/>
</svg>
