<svg width="60" height="41" viewBox="0 0 60 41" fill="none" xmlns="http://www.w3.org/2000/svg">
<path d="M44.3625 41C42.45 41 40.6875 39.9191 39.8625 38.2418L34.5375 27.6564C34.0125 26.6127 33.75 25.4945 33.75 24.3391V7.45455C33.75 3.35455 37.125 0 41.25 0H54.975C57.75 0 60 2.23636 60 4.99455V21.0964C60 23.8545 57.75 26.0909 54.975 26.0909H45L48.8625 33.7691C50.55 37.0864 48.1125 41 44.3625 41ZM10.6125 41C8.7 41 6.9375 39.9191 6.1125 38.2418L0.787498 27.6564C0.262497 26.6127 0 25.4945 0 24.3391V4.99455C0 2.23636 2.25 0 5.025 0H21.225C24 0 26.25 2.23636 26.25 4.99455V21.0964C26.25 23.8545 24 26.0909 21.225 26.0909H11.25L15.1125 33.7691C16.8 37.0864 14.3625 41 10.6125 41Z" fill="#29BB89"/>
</svg>
