<svg width="52" height="60" viewBox="0 0 52 60" fill="none" xmlns="http://www.w3.org/2000/svg">
<path d="M50.2398 10.3607C41.9845 8.09872 33.6808 4.57666 26.2261 0.175341C25.8302 -0.0584471 25.3388 -0.0584471 24.9429 0.175341C17.2733 4.7031 9.41822 8.03462 0.928591 10.3607C0.380155 10.5108 0 11.0093 0 11.578V24.474C0 37.754 6.12643 46.5445 11.266 51.5801C16.7991 57.0018 23.2444 60 25.5845 60C27.9244 60 34.3697 57.0018 39.9028 51.5801C45.0423 46.5446 51.1684 37.7541 51.1684 24.474V11.5779C51.1684 11.0093 50.7882 10.5108 50.2398 10.3607ZM48.6442 24.4739C48.6442 36.8773 42.93 45.0798 38.1361 49.7769C32.695 55.1084 26.8775 57.4756 25.5845 57.4756C24.2916 57.4756 18.4737 55.1084 13.0325 49.7769C8.23873 45.0797 2.52433 36.8773 2.52433 24.4739V12.536C10.6428 10.2309 18.2035 7.01404 25.5848 2.72463C32.7817 6.90025 40.7196 10.2771 48.6442 12.5355V24.4739Z" fill="#29BB89"/>
<path d="M14.3973 12.3948C14.1418 11.7461 13.409 11.4275 12.7603 11.6831C10.5056 12.5715 8.19138 13.3892 5.88197 14.1137C5.35568 14.2789 4.99756 14.7664 4.99756 15.3179V20.1918C4.99756 20.8888 5.56275 21.4539 6.25966 21.4539C6.95658 21.4539 7.52177 20.8888 7.52177 20.1918V16.2402C9.59352 15.5699 11.663 14.8285 13.6856 14.0315C14.3342 13.7762 14.6528 13.0434 14.3973 12.3948Z" fill="#29BB89"/>
<path d="M16.7948 12.6343C16.9641 12.6343 17.1361 12.6002 17.3009 12.5282L17.3241 12.5181C17.9627 12.2383 18.2503 11.495 17.9704 10.8566C17.6904 10.2181 16.9428 9.92922 16.305 10.2088L16.2846 10.2176C15.6457 10.4966 15.3572 11.2394 15.6362 11.878C15.8432 12.3522 16.3079 12.6343 16.7948 12.6343Z" fill="#29BB89"/>
<path d="M40.6219 40.6971C40.0387 40.3159 39.2566 40.4798 38.8749 41.0633C37.8348 42.6552 36.6147 44.1796 35.2478 45.5937C34.1238 46.7564 32.9057 47.8401 31.6276 48.8145C31.0734 49.2371 30.9667 50.0291 31.3892 50.5835C31.6378 50.9092 32.0136 51.0805 32.3937 51.0805C32.6607 51.0805 32.9296 50.9962 33.1581 50.8218C34.5368 49.7706 35.8505 48.6019 37.0625 47.3482C38.5403 45.8196 39.861 44.1696 40.9881 42.444C41.3696 41.8604 41.2054 41.0783 40.6219 40.6971Z" fill="#29BB89"/>
<path d="M28.6964 50.7941L28.624 50.8367C28.0209 51.1861 27.8147 51.9581 28.1639 52.5612C28.398 52.9655 28.8216 53.1912 29.2574 53.1912C29.4719 53.1912 29.6896 53.1365 29.8885 53.0211L29.972 52.972C30.5735 52.6197 30.7756 51.8466 30.4233 51.2451C30.0708 50.6438 29.2976 50.4421 28.6964 50.7941Z" fill="#29BB89"/>
<path d="M16.9814 27.4241C16.2064 26.649 15.1758 26.2224 14.0796 26.2224C12.9834 26.2224 11.9526 26.6491 11.1773 27.4241C9.57737 29.0244 9.57737 31.6283 11.1773 33.2285L18.63 40.6809C19.405 41.4557 20.4357 41.8824 21.532 41.8824C22.6283 41.8824 23.6589 41.4557 24.4341 40.6806L39.992 25.1226C41.5919 23.522 41.5919 20.9184 39.9918 19.3187C39.2167 18.5436 38.186 18.1171 37.0896 18.1171C35.9934 18.1171 34.9627 18.5437 34.1875 19.3187L21.5319 31.9743L16.9814 27.4241ZM35.9725 21.1037C36.2707 20.8055 36.6677 20.6413 37.0898 20.6413C37.5121 20.6413 37.9087 20.8055 38.2071 21.1037C38.823 21.7195 38.823 22.7219 38.2069 23.338L22.6492 38.8958C22.351 39.194 21.9541 39.3582 21.532 39.3582C21.1099 39.3582 20.713 39.194 20.4146 38.8958L12.9622 31.4436C12.3461 30.8275 12.3461 29.8251 12.962 29.2093C13.2603 28.9111 13.6572 28.7466 14.0795 28.7466C14.5017 28.7466 14.8984 28.9108 15.1966 29.2091L20.6394 34.6519C20.8762 34.8885 21.1971 35.0216 21.5319 35.0216C21.8667 35.0216 22.1875 34.8887 22.4241 34.6519L35.9725 21.1037Z" fill="#29BB89"/>
</svg>
