<svg width="40" height="60" viewBox="0 0 40 60" fill="none" xmlns="http://www.w3.org/2000/svg">
<path d="M16.5546 0C15.9073 0 15.3827 0.524648 15.3827 1.17188V8.39848C15.3827 9.04559 15.9073 9.57035 16.5546 9.57035C17.2018 9.57035 17.7264 9.0457 17.7264 8.39848V1.17188C17.7264 0.524648 17.2018 0 16.5546 0Z" fill="white"/>
<path d="M31.9341 15.3828H24.7075C24.0603 15.3828 23.5356 15.9075 23.5356 16.5547C23.5356 17.2019 24.0603 17.7266 24.7075 17.7266H31.9341C32.5813 17.7266 33.106 17.2019 33.106 16.5547C33.106 15.9075 32.5813 15.3828 31.9341 15.3828Z" fill="white"/>
<path d="M8.39836 15.3796H1.17188C0.524648 15.3796 0 15.9043 0 16.5515C0 17.1987 0.524648 17.7234 1.17188 17.7234H8.39848C9.04559 17.7234 9.57024 17.1987 9.57024 16.5515C9.57024 15.9043 9.04559 15.3796 8.39836 15.3796Z" fill="white"/>
<path d="M10.7572 9.09766L7.34532 5.68574C6.8877 5.22812 6.14567 5.22812 5.68794 5.68574C5.23032 6.14336 5.23032 6.88539 5.68794 7.34312L9.09997 10.755C9.32884 10.9839 9.62872 11.0983 9.9286 11.0983C10.2285 11.0983 10.5285 10.9839 10.7572 10.755C11.2149 10.2974 11.2149 9.55539 10.7572 9.09766Z" fill="white"/>
<path d="M27.4202 5.68794C26.9626 5.23032 26.2206 5.23032 25.7628 5.68794L22.3509 9.09985C21.8933 9.55747 21.8933 10.2995 22.3509 10.7572C22.5798 10.9861 22.8798 11.1005 23.1797 11.1005C23.4795 11.1005 23.7795 10.9861 24.0083 10.7572L27.4202 7.34532C27.8778 6.88771 27.8778 6.14567 27.4202 5.68794Z" fill="white"/>
<path d="M35.5389 26.6843C34.7478 26.6843 34.0062 26.8983 33.367 27.2699C32.8343 25.4783 31.1731 24.1676 29.2108 24.1676C27.9636 24.1676 26.8386 24.6976 26.0468 25.5434C25.255 24.6976 24.1298 24.1676 22.8827 24.1676C22.1647 24.1676 21.4876 24.3441 20.8905 24.6543V16.553C20.8905 14.1621 18.9454 12.217 16.5546 12.217C14.1637 12.217 12.2186 14.1621 12.2186 16.553V22.7319C12.2186 23.3792 12.7433 23.9038 13.3905 23.9038C14.0377 23.9038 14.5624 23.3792 14.5624 22.7319V16.553C14.5624 15.4545 15.456 14.5608 16.5546 14.5608C17.6531 14.5608 18.5468 15.4545 18.5468 16.553V36.1711C18.5468 36.8183 19.0714 37.343 19.7186 37.343C20.3659 37.343 20.8905 36.8183 20.8905 36.1711V28.5035C20.8905 27.405 21.7842 26.5113 22.8827 26.5113C23.9812 26.5113 24.8749 27.405 24.8749 28.5035V29.6345V36.1711C24.8749 36.8183 25.3995 37.343 26.0468 37.343C26.694 37.343 27.2186 36.8183 27.2186 36.1711V29.6345V28.5035C27.2186 27.405 28.1123 26.5113 29.2108 26.5113C30.3093 26.5113 31.203 27.405 31.203 28.5035V31.0201V33.0469V36.1712C31.203 36.8184 31.7277 37.3431 32.3749 37.3431C33.0221 37.3431 33.5468 36.8184 33.5468 36.1712V33.0469V31.0201C33.5468 29.9216 34.4404 29.0279 35.5389 29.0279C36.6375 29.0279 37.5311 29.9216 37.5311 31.0201V43.2749C37.5311 44.1478 37.4525 45.0218 37.2972 45.8726C37.1811 46.5094 37.6031 47.1196 38.2398 47.2357C38.3109 47.2486 38.3816 47.2549 38.4514 47.2549C39.0066 47.2549 39.4998 46.8587 39.603 46.2931C39.7834 45.3039 39.8749 44.2884 39.8749 43.2748V31.0201C39.8749 28.6294 37.9298 26.6843 35.5389 26.6843Z" fill="white"/>
<path d="M34.614 53.8504C34.1726 53.3771 33.4309 53.3515 32.9578 53.7929C30.2873 56.2842 26.8041 57.6562 23.1497 57.6562C17.6671 57.6562 12.5838 54.4662 10.1995 49.5291L4.80152 38.352C4.31461 37.3439 4.69277 36.1158 5.66226 35.556C6.66468 34.9774 7.9698 35.3106 8.57215 36.2987L12.39 42.563C12.6634 43.0114 13.2018 43.2233 13.7074 43.0814C14.2131 42.9395 14.5625 42.4784 14.5625 41.9531V30.4688C14.5625 29.8215 14.0379 29.2969 13.3907 29.2969C12.7434 29.2969 12.2188 29.8215 12.2188 30.4688V37.7786L10.5735 35.079C9.29308 32.9781 6.62097 32.2961 4.49039 33.5263C2.46363 34.6964 1.6732 37.2639 2.69109 39.3712L8.0891 50.5484C9.45855 53.3839 11.5922 55.7675 14.2594 57.4413C16.9266 59.1152 20.0009 60 23.1498 60C27.3997 60 31.4507 58.4043 34.5566 55.5067C35.0298 55.0651 35.0556 54.3237 34.614 53.8504Z" fill="white"/>
<path d="M37.6459 49.875C37.4279 49.657 37.1256 49.5316 36.8174 49.5316C36.5092 49.5316 36.2068 49.657 35.9889 49.875C35.7709 50.0929 35.6455 50.3953 35.6455 50.7035C35.6455 51.0129 35.7709 51.314 35.9889 51.532C36.2068 51.75 36.5092 51.8754 36.8174 51.8754C37.1256 51.8754 37.4279 51.75 37.6459 51.532C37.8639 51.314 37.9893 51.0129 37.9893 50.7035C37.9893 50.3953 37.8639 50.0929 37.6459 49.875Z" fill="white"/>
<path d="M14.2189 25.8902C14.0009 25.6723 13.6986 25.5469 13.3904 25.5469C13.0822 25.5469 12.7798 25.6723 12.5619 25.8902C12.3439 26.1082 12.2185 26.4105 12.2185 26.7188C12.2185 27.027 12.3439 27.3293 12.5619 27.5473C12.7798 27.7652 13.0822 27.8906 13.3904 27.8906C13.6986 27.8906 14.0009 27.7652 14.2189 27.5473C14.4369 27.3293 14.5623 27.027 14.5623 26.7188C14.5623 26.4105 14.4369 26.1082 14.2189 25.8902Z" fill="white"/>
</svg>
