<svg width="28" height="29" viewBox="0 0 28 29" fill="none" xmlns="http://www.w3.org/2000/svg">
<path d="M14 25.9612C16.9704 25.9612 19.8192 24.7812 21.9196 22.6808C24.02 20.5804 25.2 17.7317 25.2 14.7612C25.2 11.7908 24.02 8.94204 21.9196 6.84163C19.8192 4.74123 16.9704 3.56123 14 3.56123C11.0296 3.56123 8.18081 4.74123 6.0804 6.84163C3.98 8.94204 2.8 11.7908 2.8 14.7612C2.8 17.7317 3.98 20.5804 6.0804 22.6808C8.18081 24.7812 11.0296 25.9612 14 25.9612ZM14 28.7612C6.2678 28.7612 0 22.4934 0 14.7612C0 7.02903 6.2678 0.76123 14 0.76123C21.7322 0.76123 28 7.02903 28 14.7612C28 22.4934 21.7322 28.7612 14 28.7612Z" fill="#383838"/>
<path d="M21 10.4869C20.4848 10.7109 19.9318 10.8649 19.3508 10.9321C19.9444 10.5821 20.398 10.0277 20.6136 9.36835C20.048 9.698 19.4308 9.92992 18.788 10.0543C18.5176 9.77095 18.1924 9.5456 17.832 9.39203C17.4717 9.23847 17.0839 9.15991 16.6922 9.16115C15.106 9.16115 13.8208 10.4281 13.8208 11.9891C13.8208 12.2103 13.846 12.4259 13.895 12.6331C12.7573 12.5791 11.6433 12.2885 10.6241 11.7799C9.60495 11.2713 8.703 10.5558 7.9758 9.67915C7.72039 10.1091 7.58591 10.6001 7.5866 11.1001C7.5866 12.0801 8.0948 12.9481 8.8648 13.4535C8.40902 13.4393 7.963 13.3179 7.5628 13.0993V13.1343C7.56713 13.7916 7.79912 14.427 8.21928 14.9324C8.63945 15.4379 9.22181 15.782 9.8672 15.9063C9.4435 16.0184 9.00017 16.0346 8.5694 15.9539C8.75718 16.5194 9.11634 17.0123 9.59703 17.3643C10.0777 17.7163 10.6561 17.9098 11.2518 17.9181C10.2297 18.7057 8.9749 19.1312 7.6846 19.1277C7.4536 19.1277 7.2254 19.1137 7 19.0885C8.31666 19.9219 9.84335 20.3633 11.4016 20.3611C16.6852 20.3611 19.5734 16.0519 19.5734 12.3139L19.5636 11.9471C20.1268 11.5513 20.6135 11.0566 21 10.4869Z" fill="#383838"/>
</svg>
