<svg width="60" height="60" viewBox="0 0 60 60" fill="none" xmlns="http://www.w3.org/2000/svg">
<path d="M11.464 34.8C10.414 34.293 9.242 34 8 34C3.589 34 0 37.589 0 42C0 46.411 3.589 50 8 50C10.768 50 13.211 48.586 14.648 46.443L22.205 50.226C22.075 50.797 22 51.39 22 52C22 56.411 25.589 60 30 60C34.411 60 38 56.411 38 52C38 50.342 37.493 48.801 36.625 47.522L47.244 36.419C48.576 37.407 50.218 38 52 38C56.411 38 60 34.411 60 30C60 25.589 56.411 22 52 22C50.154 22 48.458 22.634 47.102 23.688L36.312 12.898C37.366 11.542 38 9.846 38 8C38 3.589 34.411 0 30 0C25.589 0 22 3.589 22 8C22 8.608 22.074 9.199 22.204 9.769L15.112 12.353C13.782 9.772 11.097 8 8 8C3.589 8 0 11.589 0 16C0 20.411 3.589 24 8 24C9.138 24 10.219 23.758 11.2 23.327L14.881 29.522L11.464 34.8ZM8 48C4.691 48 2 45.309 2 42C2 38.691 4.691 36 8 36C11.309 36 14 38.691 14 42C14 45.309 11.309 48 8 48ZM15.539 44.651C15.832 43.82 16 42.93 16 42C16 39.547 14.888 37.351 13.145 35.883L16.021 31.441L24.692 46.032C23.962 46.682 23.351 47.46 22.898 48.335L15.539 44.651ZM30 16C31.846 16 33.542 15.366 34.898 14.312L45.689 25.103C45.042 25.935 44.558 26.896 44.279 27.942L37.997 27.078C37.996 27.052 38 27.026 38 27C38 22.589 34.411 19 30 19C27.232 19 24.788 20.414 23.352 22.557L22.159 21.961L26.537 15.2C27.586 15.707 28.758 16 30 16ZM31 44.069V34.93C34.25 34.522 36.894 32.16 37.722 29.058L44.004 29.922C44.004 29.948 44 29.974 44 30C44 31.91 44.674 33.663 45.795 35.04L35.295 46.019C34.118 44.976 32.637 44.275 31 44.069ZM30 21C33.309 21 36 23.691 36 27C36 30.309 33.309 33 30 33C26.691 33 24 30.309 24 27C24 23.691 26.691 21 30 21ZM22.461 24.349C22.168 25.18 22 26.07 22 27C22 31.072 25.06 34.436 29 34.931V44.07C28.052 44.189 27.157 44.473 26.342 44.894L17.234 29.567L21.065 23.651L22.461 24.349ZM30 58C26.691 58 24 55.309 24 52C24 48.691 26.691 46 30 46C33.309 46 36 48.691 36 52C36 55.309 33.309 58 30 58ZM52 24C55.309 24 58 26.691 58 30C58 33.309 55.309 36 52 36C48.691 36 46 33.309 46 30C46 26.691 48.691 24 52 24ZM30 2C33.309 2 36 4.691 36 8C36 11.309 33.309 14 30 14C26.691 14 24 11.309 24 8C24 4.691 26.691 2 30 2ZM22.888 11.647C23.377 12.596 24.046 13.435 24.855 14.117L20.359 21.061L15.539 18.651C15.832 17.82 16 16.93 16 16C16 15.392 15.926 14.801 15.796 14.231L22.888 11.647ZM2 16C2 12.691 4.691 10 8 10C11.309 10 14 12.691 14 16C14 19.309 11.309 22 8 22C4.691 22 2 19.309 2 16ZM12.915 22.299C13.585 21.775 14.173 21.151 14.648 20.443L19.265 22.751L16.094 27.648L12.915 22.299Z" fill="white"/>
</svg>
